<svg width="102" height="52" viewBox="0 0 102 52" fill="none" xmlns="http://www.w3.org/2000/svg">
<g opacity="0.45">
<path d="M2.70777 40.652H4.85451C5.34146 40.652 5.7527 40.7262 6.08822 40.8747C6.42671 41.0231 6.68355 41.2428 6.85873 41.5338C7.03688 41.8218 7.12596 42.1766 7.12596 42.5983C7.12596 42.8952 7.06509 43.1669 6.94335 43.4133C6.82459 43.6568 6.65237 43.8646 6.42671 44.0369C6.20402 44.2061 5.93679 44.3323 5.62502 44.4154L5.38452 44.509H3.36694L3.35803 43.8097H4.88124C5.19003 43.8097 5.44687 43.7563 5.65175 43.6494C5.85662 43.5395 6.01102 43.3925 6.11494 43.2085C6.21887 43.0244 6.27083 42.821 6.27083 42.5983C6.27083 42.3489 6.22184 42.1306 6.12385 41.9436C6.02587 41.7565 5.87147 41.6125 5.66065 41.5115C5.45281 41.4076 5.1841 41.3557 4.85451 41.3557H3.56736V47.1367H2.70777V40.652ZM6.49797 47.1367L4.92132 44.1972L5.81654 44.1927L7.41546 47.0833V47.1367H6.49797ZM10.3664 47.2258C10.0309 47.2258 9.72657 47.1694 9.4534 47.0566C9.1832 46.9408 8.95012 46.7789 8.75415 46.5711C8.56115 46.3632 8.41269 46.1168 8.30877 45.8317C8.20485 45.5467 8.15288 45.2349 8.15288 44.8964V44.7094C8.15288 44.3175 8.21078 43.9686 8.32658 43.6627C8.44238 43.3539 8.59975 43.0927 8.79869 42.8789C8.99762 42.6651 9.22329 42.5033 9.47567 42.3934C9.72805 42.2835 9.98934 42.2286 10.2595 42.2286C10.604 42.2286 10.9009 42.288 11.1503 42.4068C11.4027 42.5255 11.609 42.6918 11.7694 42.9056C11.9297 43.1164 12.0485 43.3658 12.1257 43.6538C12.2029 43.9389 12.2415 44.2506 12.2415 44.5891V44.9588H8.6428V44.2863H11.4175V44.2239C11.4057 44.0101 11.3611 43.8023 11.2839 43.6004C11.2097 43.3985 11.0909 43.2322 10.9276 43.1016C10.7643 42.9709 10.5416 42.9056 10.2595 42.9056C10.0725 42.9056 9.90027 42.9457 9.7429 43.0258C9.58553 43.103 9.45043 43.2188 9.3376 43.3732C9.22477 43.5276 9.13718 43.7162 9.07482 43.9389C9.01247 44.1616 8.98129 44.4184 8.98129 44.7094V44.8964C8.98129 45.1251 9.01247 45.3403 9.07482 45.5423C9.14015 45.7412 9.23368 45.9164 9.35541 46.0678C9.48012 46.2192 9.63007 46.338 9.80525 46.4241C9.9834 46.5102 10.1853 46.5533 10.411 46.5533C10.702 46.5533 10.9484 46.4939 11.1503 46.3751C11.3522 46.2563 11.5289 46.0975 11.6803 45.8986L12.1791 46.2949C12.0752 46.4523 11.9431 46.6023 11.7827 46.7448C11.6224 46.8873 11.425 47.0031 11.1904 47.0922C10.9588 47.1813 10.6841 47.2258 10.3664 47.2258ZM14.2616 40.2957V47.1367H13.4332V40.2957H14.2616ZM16.6425 42.3177V47.1367H15.8141V42.3177H16.6425ZM15.7517 41.0394C15.7517 40.9058 15.7918 40.793 15.872 40.701C15.9551 40.6089 16.0769 40.5629 16.2372 40.5629C16.3946 40.5629 16.5148 40.6089 16.598 40.701C16.6841 40.793 16.7271 40.9058 16.7271 41.0394C16.7271 41.1671 16.6841 41.277 16.598 41.369C16.5148 41.4581 16.3946 41.5026 16.2372 41.5026C16.0769 41.5026 15.9551 41.4581 15.872 41.369C15.7918 41.277 15.7517 41.1671 15.7517 41.0394ZM20.9697 46.3128V43.832C20.9697 43.642 20.9311 43.4772 20.8539 43.3376C20.7797 43.1951 20.6668 43.0852 20.5154 43.008C20.364 42.9308 20.1769 42.8922 19.9542 42.8922C19.7464 42.8922 19.5638 42.9279 19.4064 42.9991C19.252 43.0704 19.1303 43.1639 19.0412 43.2797C18.9551 43.3955 18.912 43.5202 18.912 43.6538H18.0881C18.0881 43.4816 18.1326 43.3109 18.2217 43.1416C18.3108 42.9724 18.4384 42.8195 18.6047 42.6829C18.774 42.5433 18.9759 42.4335 19.2104 42.3533C19.448 42.2702 19.7122 42.2286 20.0032 42.2286C20.3536 42.2286 20.6624 42.288 20.9296 42.4068C21.1998 42.5255 21.4106 42.7052 21.5621 42.9457C21.7165 43.1832 21.7937 43.4816 21.7937 43.8409V46.0856C21.7937 46.246 21.807 46.4167 21.8337 46.5978C21.8634 46.7789 21.9065 46.9348 21.9629 47.0655V47.1367H21.1033C21.0617 47.0417 21.0291 46.9155 21.0053 46.7581C20.9816 46.5978 20.9697 46.4493 20.9697 46.3128ZM21.1122 44.215L21.1211 44.794H20.2883C20.0537 44.794 19.8444 44.8133 19.6603 44.8519C19.4762 44.8875 19.3218 44.9425 19.1971 45.0167C19.0724 45.0909 18.9774 45.1845 18.912 45.2973C18.8467 45.4072 18.8141 45.5363 18.8141 45.6848C18.8141 45.8362 18.8482 45.9743 18.9165 46.099C18.9848 46.2237 19.0872 46.3232 19.2238 46.3974C19.3634 46.4686 19.5341 46.5043 19.736 46.5043C19.9884 46.5043 20.2111 46.4508 20.4041 46.3439C20.5971 46.237 20.75 46.1064 20.8628 45.952C20.9786 45.7976 21.041 45.6477 21.0499 45.5022L21.4017 45.8986C21.3809 46.0233 21.3245 46.1613 21.2325 46.3128C21.1404 46.4642 21.0172 46.6097 20.8628 46.7492C20.7114 46.8858 20.5303 47.0001 20.3194 47.0922C20.1116 47.1813 19.877 47.2258 19.6157 47.2258C19.2891 47.2258 19.0026 47.162 18.7562 47.0343C18.5127 46.9066 18.3226 46.7359 18.1861 46.5221C18.0524 46.3053 17.9856 46.0633 17.9856 45.7961C17.9856 45.5378 18.0361 45.3107 18.1371 45.1147C18.238 44.9157 18.3835 44.751 18.5735 44.6203C18.7636 44.4867 18.9922 44.3857 19.2594 44.3175C19.5267 44.2492 19.8251 44.215 20.1547 44.215H21.1122ZM23.2481 40.2957H24.0766V46.2014L24.0053 47.1367H23.2481V40.2957ZM27.3323 44.6871V44.7806C27.3323 45.131 27.2907 45.4561 27.2076 45.756C27.1245 46.053 27.0027 46.3113 26.8424 46.531C26.682 46.7507 26.4861 46.9215 26.2545 47.0432C26.0229 47.1649 25.7571 47.2258 25.4572 47.2258C25.1514 47.2258 24.8827 47.1738 24.6511 47.0699C24.4225 46.963 24.2295 46.8101 24.0721 46.6112C23.9147 46.4122 23.7885 46.1717 23.6935 45.8896C23.6015 45.6076 23.5376 45.2899 23.502 44.9365V44.5268C23.5376 44.1705 23.6015 43.8513 23.6935 43.5692C23.7885 43.2871 23.9147 43.0466 24.0721 42.8477C24.2295 42.6458 24.4225 42.4929 24.6511 42.3889C24.8797 42.2821 25.1455 42.2286 25.4483 42.2286C25.7512 42.2286 26.0199 42.288 26.2545 42.4068C26.489 42.5226 26.685 42.6888 26.8424 42.9056C27.0027 43.1223 27.1245 43.3821 27.2076 43.685C27.2907 43.9849 27.3323 44.3189 27.3323 44.6871ZM26.5039 44.7806V44.6871C26.5039 44.4466 26.4816 44.221 26.4371 44.0101C26.3925 43.7964 26.3213 43.6093 26.2233 43.449C26.1253 43.2857 25.9962 43.158 25.8358 43.0659C25.6755 42.9709 25.478 42.9234 25.2435 42.9234C25.0356 42.9234 24.8545 42.959 24.7001 43.0303C24.5487 43.1016 24.4195 43.1981 24.3126 43.3198C24.2057 43.4386 24.1181 43.5751 24.0498 43.7295C23.9845 43.881 23.9355 44.0383 23.9029 44.2017V45.275C23.9504 45.4829 24.0276 45.6833 24.1345 45.8763C24.2443 46.0663 24.3898 46.2222 24.5709 46.3439C24.755 46.4657 24.9822 46.5265 25.2524 46.5265C25.4751 46.5265 25.6651 46.482 25.8225 46.3929C25.9828 46.3009 26.112 46.1747 26.2099 46.0144C26.3109 45.854 26.3851 45.6684 26.4326 45.4576C26.4801 45.2468 26.5039 45.0212 26.5039 44.7806ZM29.4326 40.2957V47.1367H28.6042V40.2957H29.4326ZM32.918 47.2258C32.5825 47.2258 32.2782 47.1694 32.005 47.0566C31.7348 46.9408 31.5017 46.7789 31.3057 46.5711C31.1127 46.3632 30.9643 46.1168 30.8604 45.8317C30.7564 45.5467 30.7045 45.2349 30.7045 44.8964V44.7094C30.7045 44.3175 30.7624 43.9686 30.8782 43.6627C30.994 43.3539 31.1513 43.0927 31.3503 42.8789C31.5492 42.6651 31.7749 42.5033 32.0273 42.3934C32.2796 42.2835 32.5409 42.2286 32.8111 42.2286C33.1556 42.2286 33.4525 42.288 33.7019 42.4068C33.9543 42.5255 34.1606 42.6918 34.321 42.9056C34.4813 43.1164 34.6001 43.3658 34.6773 43.6538C34.7545 43.9389 34.7931 44.2506 34.7931 44.5891V44.9588H31.1944V44.2863H33.9691V44.2239C33.9572 44.0101 33.9127 43.8023 33.8355 43.6004C33.7613 43.3985 33.6425 43.2322 33.4792 43.1016C33.3159 42.9709 33.0932 42.9056 32.8111 42.9056C32.6241 42.9056 32.4519 42.9457 32.2945 43.0258C32.1371 43.103 32.002 43.2188 31.8892 43.3732C31.7764 43.5276 31.6888 43.7162 31.6264 43.9389C31.5641 44.1616 31.5329 44.4184 31.5329 44.7094V44.8964C31.5329 45.1251 31.5641 45.3403 31.6264 45.5423C31.6917 45.7412 31.7853 45.9164 31.907 46.0678C32.0317 46.2192 32.1817 46.338 32.3568 46.4241C32.535 46.5102 32.7369 46.5533 32.9626 46.5533C33.2535 46.5533 33.5 46.4939 33.7019 46.3751C33.9038 46.2563 34.0805 46.0975 34.2319 45.8986L34.7307 46.2949C34.6268 46.4523 34.4947 46.6023 34.3343 46.7448C34.174 46.8873 33.9765 47.0031 33.742 47.0922C33.5104 47.1813 33.2357 47.2258 32.918 47.2258ZM41.1493 45.8585C41.1493 45.7397 41.1226 45.6298 41.0691 45.5289C41.0187 45.425 40.9133 45.3314 40.7529 45.2483C40.5956 45.1622 40.358 45.088 40.0403 45.0256C39.7731 44.9692 39.5311 44.9024 39.3143 44.8252C39.1006 44.748 38.918 44.6545 38.7665 44.5446C38.6181 44.4347 38.5037 44.3056 38.4236 44.1571C38.3434 44.0087 38.3033 43.835 38.3033 43.636C38.3033 43.446 38.3449 43.2664 38.428 43.0971C38.5141 42.9279 38.6344 42.7779 38.7888 42.6473C38.9462 42.5166 39.1347 42.4142 39.3544 42.34C39.5742 42.2657 39.8191 42.2286 40.0893 42.2286C40.4753 42.2286 40.8049 42.2969 41.0781 42.4335C41.3512 42.5701 41.5606 42.7527 41.706 42.9813C41.8515 43.207 41.9243 43.4579 41.9243 43.734H41.1003C41.1003 43.6004 41.0602 43.4712 40.9801 43.3465C40.9029 43.2188 40.7886 43.1134 40.6371 43.0303C40.4887 42.9472 40.3061 42.9056 40.0893 42.9056C39.8607 42.9056 39.6751 42.9412 39.5326 43.0125C39.393 43.0808 39.2906 43.1684 39.2253 43.2753C39.1629 43.3821 39.1317 43.495 39.1317 43.6137C39.1317 43.7028 39.1466 43.783 39.1763 43.8543C39.2089 43.9225 39.2654 43.9864 39.3455 44.0458C39.4257 44.1022 39.5385 44.1556 39.684 44.2061C39.8295 44.2566 40.0151 44.3071 40.2407 44.3575C40.6356 44.4466 40.9608 44.5535 41.2161 44.6782C41.4715 44.8029 41.6615 44.9558 41.7862 45.137C41.9109 45.3181 41.9733 45.5378 41.9733 45.7961C41.9733 46.0069 41.9287 46.1999 41.8397 46.3751C41.7536 46.5503 41.6274 46.7017 41.4611 46.8294C41.2978 46.9541 41.1018 47.0521 40.8732 47.1234C40.6475 47.1916 40.3937 47.2258 40.1116 47.2258C39.687 47.2258 39.3277 47.1501 39.0338 46.9987C38.7398 46.8472 38.5171 46.6513 38.3657 46.4107C38.2143 46.1702 38.1385 45.9164 38.1385 45.6491H38.9669C38.9788 45.8748 39.0441 46.0544 39.1629 46.1881C39.2817 46.3187 39.4272 46.4122 39.5994 46.4686C39.7716 46.5221 39.9423 46.5488 40.1116 46.5488C40.3372 46.5488 40.5258 46.5191 40.6772 46.4597C40.8316 46.4004 40.9489 46.3187 41.0291 46.2148C41.1092 46.1109 41.1493 45.9921 41.1493 45.8585ZM45.2182 47.2258C44.8827 47.2258 44.5783 47.1694 44.3052 47.0566C44.035 46.9408 43.8019 46.7789 43.6059 46.5711C43.4129 46.3632 43.2645 46.1168 43.1605 45.8317C43.0566 45.5467 43.0046 45.2349 43.0046 44.8964V44.7094C43.0046 44.3175 43.0625 43.9686 43.1783 43.6627C43.2941 43.3539 43.4515 43.0927 43.6505 42.8789C43.8494 42.6651 44.075 42.5033 44.3274 42.3934C44.5798 42.2835 44.8411 42.2286 45.1113 42.2286C45.4557 42.2286 45.7527 42.288 46.0021 42.4068C46.2545 42.5255 46.4608 42.6918 46.6211 42.9056C46.7815 43.1164 46.9003 43.3658 46.9775 43.6538C47.0547 43.9389 47.0933 44.2506 47.0933 44.5891V44.9588H43.4946V44.2863H46.2693V44.2239C46.2574 44.0101 46.2129 43.8023 46.1357 43.6004C46.0615 43.3985 45.9427 43.2322 45.7794 43.1016C45.6161 42.9709 45.3934 42.9056 45.1113 42.9056C44.9242 42.9056 44.752 42.9457 44.5947 43.0258C44.4373 43.103 44.3022 43.2188 44.1894 43.3732C44.0765 43.5276 43.9889 43.7162 43.9266 43.9389C43.8642 44.1616 43.8331 44.4184 43.8331 44.7094V44.8964C43.8331 45.1251 43.8642 45.3403 43.9266 45.5423C43.9919 45.7412 44.0854 45.9164 44.2072 46.0678C44.3319 46.2192 44.4818 46.338 44.657 46.4241C44.8352 46.5102 45.0371 46.5533 45.2627 46.5533C45.5537 46.5533 45.8002 46.4939 46.0021 46.3751C46.204 46.2563 46.3806 46.0975 46.5321 45.8986L47.0309 46.2949C46.927 46.4523 46.7948 46.6023 46.6345 46.7448C46.4742 46.8873 46.2767 47.0031 46.0422 47.0922C45.8106 47.1813 45.5359 47.2258 45.2182 47.2258ZM49.0421 43.0748V47.1367H48.2182V42.3177H49.0198L49.0421 43.0748ZM50.5475 42.291L50.5431 43.057C50.4748 43.0422 50.4094 43.0333 50.3471 43.0303C50.2877 43.0244 50.2194 43.0214 50.1422 43.0214C49.9522 43.0214 49.7844 43.0511 49.6389 43.1105C49.4934 43.1699 49.3702 43.253 49.2693 43.3599C49.1683 43.4668 49.0881 43.5944 49.0288 43.7429C48.9723 43.8884 48.9352 44.0487 48.9174 44.2239L48.6858 44.3575C48.6858 44.0666 48.714 43.7934 48.7704 43.538C48.8298 43.2827 48.9204 43.057 49.0421 42.8611C49.1639 42.6621 49.3183 42.5077 49.5053 42.3979C49.6953 42.285 49.921 42.2286 50.1823 42.2286C50.2417 42.2286 50.31 42.236 50.3872 42.2509C50.4644 42.2628 50.5178 42.2761 50.5475 42.291ZM53.0175 46.3929L54.3358 42.3177H55.1776L53.445 47.1367H52.8928L53.0175 46.3929ZM51.9174 42.3177L53.2758 46.4152L53.3693 47.1367H52.817L51.0712 42.3177H51.9174ZM57.0285 42.3177V47.1367H56.2V42.3177H57.0285ZM56.1377 41.0394C56.1377 40.9058 56.1778 40.793 56.2579 40.701C56.3411 40.6089 56.4628 40.5629 56.6232 40.5629C56.7805 40.5629 56.9008 40.6089 56.9839 40.701C57.07 40.793 57.1131 40.9058 57.1131 41.0394C57.1131 41.1671 57.07 41.277 56.9839 41.369C56.9008 41.4581 56.7805 41.5026 56.6232 41.5026C56.4628 41.5026 56.3411 41.4581 56.2579 41.369C56.1778 41.277 56.1377 41.1671 56.1377 41.0394ZM60.4426 46.5488C60.6386 46.5488 60.8197 46.5087 60.986 46.4286C61.1523 46.3484 61.2888 46.2385 61.3957 46.099C61.5026 45.9565 61.5635 45.7946 61.5783 45.6135H62.3622C62.3474 45.8986 62.2509 46.1643 62.0727 46.4107C61.8975 46.6542 61.6674 46.8517 61.3824 47.0031C61.0973 47.1516 60.7841 47.2258 60.4426 47.2258C60.0804 47.2258 59.7642 47.162 59.494 47.0343C59.2267 46.9066 59.004 46.7314 58.8259 46.5087C58.6507 46.286 58.5186 46.0307 58.4295 45.7427C58.3434 45.4517 58.3003 45.1444 58.3003 44.8207V44.6337C58.3003 44.31 58.3434 44.0042 58.4295 43.7162C58.5186 43.4252 58.6507 43.1684 58.8259 42.9457C59.004 42.723 59.2267 42.5478 59.494 42.4201C59.7642 42.2924 60.0804 42.2286 60.4426 42.2286C60.8197 42.2286 61.1493 42.3058 61.4314 42.4602C61.7134 42.6116 61.9346 42.8195 62.095 43.0837C62.2583 43.345 62.3474 43.642 62.3622 43.9745H61.5783C61.5635 43.7756 61.5071 43.5959 61.4091 43.4356C61.3141 43.2753 61.1834 43.1476 61.0172 43.0526C60.8539 42.9546 60.6623 42.9056 60.4426 42.9056C60.1902 42.9056 59.9779 42.9561 59.8057 43.057C59.6365 43.155 59.5014 43.2886 59.4004 43.4579C59.3024 43.6241 59.2312 43.8097 59.1866 44.0146C59.1451 44.2165 59.1243 44.4229 59.1243 44.6337V44.8207C59.1243 45.0315 59.1451 45.2394 59.1866 45.4443C59.2282 45.6491 59.298 45.8347 59.396 46.001C59.4969 46.1673 59.632 46.3009 59.8013 46.4018C59.9735 46.4998 60.1873 46.5488 60.4426 46.5488ZM65.4513 47.2258C65.1157 47.2258 64.8114 47.1694 64.5382 47.0566C64.268 46.9408 64.0349 46.7789 63.839 46.5711C63.646 46.3632 63.4975 46.1168 63.3936 45.8317C63.2897 45.5467 63.2377 45.2349 63.2377 44.8964V44.7094C63.2377 44.3175 63.2956 43.9686 63.4114 43.6627C63.5272 43.3539 63.6846 43.0927 63.8835 42.8789C64.0825 42.6651 64.3081 42.5033 64.5605 42.3934C64.8129 42.2835 65.0742 42.2286 65.3444 42.2286C65.6888 42.2286 65.9857 42.288 66.2351 42.4068C66.4875 42.5255 66.6939 42.6918 66.8542 42.9056C67.0145 43.1164 67.1333 43.3658 67.2105 43.6538C67.2877 43.9389 67.3263 44.2506 67.3263 44.5891V44.9588H63.7276V44.2863H66.5024V44.2239C66.4905 44.0101 66.4459 43.8023 66.3687 43.6004C66.2945 43.3985 66.1757 43.2322 66.0124 43.1016C65.8491 42.9709 65.6264 42.9056 65.3444 42.9056C65.1573 42.9056 64.9851 42.9457 64.8277 43.0258C64.6704 43.103 64.5353 43.2188 64.4224 43.3732C64.3096 43.5276 64.222 43.7162 64.1597 43.9389C64.0973 44.1616 64.0661 44.4184 64.0661 44.7094V44.8964C64.0661 45.1251 64.0973 45.3403 64.1597 45.5423C64.225 45.7412 64.3185 45.9164 64.4402 46.0678C64.5649 46.2192 64.7149 46.338 64.8901 46.4241C65.0682 46.5102 65.2701 46.5533 65.4958 46.5533C65.7868 46.5533 66.0332 46.4939 66.2351 46.3751C66.437 46.2563 66.6137 46.0975 66.7651 45.8986L67.264 46.2949C67.16 46.4523 67.0279 46.6023 66.8676 46.7448C66.7072 46.8873 66.5098 47.0031 66.2752 47.0922C66.0436 47.1813 65.769 47.2258 65.4513 47.2258ZM72.1059 47.1367H71.2819V41.81C71.2819 41.4626 71.3443 41.1701 71.469 40.9325C71.5967 40.692 71.7793 40.5109 72.0168 40.3892C72.2544 40.2645 72.5364 40.2021 72.863 40.2021C72.9581 40.2021 73.0531 40.2081 73.1481 40.2199C73.2461 40.2318 73.3411 40.2496 73.4331 40.2734L73.3886 40.9459C73.3262 40.9311 73.255 40.9207 73.1748 40.9147C73.0976 40.9088 73.0204 40.9058 72.9432 40.9058C72.768 40.9058 72.6166 40.9415 72.4889 41.0127C72.3642 41.081 72.2692 41.182 72.2039 41.3156C72.1386 41.4492 72.1059 41.614 72.1059 41.81V47.1367ZM73.1303 42.3177V42.9501H70.5203V42.3177H73.1303ZM73.9924 44.7806V44.6782C73.9924 44.3308 74.0429 44.0087 74.1438 43.7117C74.2448 43.4118 74.3903 43.152 74.5803 42.9323C74.7703 42.7096 75.0005 42.5374 75.2707 42.4157C75.5409 42.291 75.8437 42.2286 76.1792 42.2286C76.5177 42.2286 76.8221 42.291 77.0923 42.4157C77.3654 42.5374 77.597 42.7096 77.7871 42.9323C77.9801 43.152 78.127 43.4118 78.228 43.7117C78.3289 44.0087 78.3794 44.3308 78.3794 44.6782V44.7806C78.3794 45.128 78.3289 45.4502 78.228 45.7471C78.127 46.044 77.9801 46.3039 77.7871 46.5265C77.597 46.7463 77.3669 46.9185 77.0967 47.0432C76.8295 47.1649 76.5266 47.2258 76.1881 47.2258C75.8497 47.2258 75.5453 47.1649 75.2751 47.0432C75.0049 46.9185 74.7733 46.7463 74.5803 46.5265C74.3903 46.3039 74.2448 46.044 74.1438 45.7471C74.0429 45.4502 73.9924 45.128 73.9924 44.7806ZM74.8164 44.6782V44.7806C74.8164 45.0212 74.8446 45.2483 74.901 45.4621C74.9574 45.6729 75.042 45.86 75.1549 46.0233C75.2707 46.1866 75.4147 46.3157 75.5869 46.4107C75.7591 46.5028 75.9595 46.5488 76.1881 46.5488C76.4138 46.5488 76.6113 46.5028 76.7805 46.4107C76.9527 46.3157 77.0952 46.1866 77.2081 46.0233C77.3209 45.86 77.4055 45.6729 77.4619 45.4621C77.5213 45.2483 77.551 45.0212 77.551 44.7806V44.6782C77.551 44.4407 77.5213 44.2165 77.4619 44.0057C77.4055 43.7919 77.3194 43.6034 77.2036 43.44C77.0908 43.2738 76.9483 43.1431 76.776 43.0481C76.6068 42.9531 76.4079 42.9056 76.1792 42.9056C75.9536 42.9056 75.7546 42.9531 75.5824 43.0481C75.4132 43.1431 75.2707 43.2738 75.1549 43.44C75.042 43.6034 74.9574 43.7919 74.901 44.0057C74.8446 44.2165 74.8164 44.4407 74.8164 44.6782ZM80.3995 43.0748V47.1367H79.5756V42.3177H80.3773L80.3995 43.0748ZM81.9049 42.291L81.9005 43.057C81.8322 43.0422 81.7669 43.0333 81.7045 43.0303C81.6451 43.0244 81.5768 43.0214 81.4996 43.0214C81.3096 43.0214 81.1418 43.0511 80.9964 43.1105C80.8509 43.1699 80.7276 43.253 80.6267 43.3599C80.5257 43.4668 80.4456 43.5944 80.3862 43.7429C80.3298 43.8884 80.2927 44.0487 80.2748 44.2239L80.0432 44.3575C80.0432 44.0666 80.0714 43.7934 80.1279 43.538C80.1872 43.2827 80.2778 43.057 80.3995 42.8611C80.5213 42.6621 80.6757 42.5077 80.8627 42.3979C81.0528 42.285 81.2784 42.2286 81.5397 42.2286C81.5991 42.2286 81.6674 42.236 81.7446 42.2509C81.8218 42.2628 81.8752 42.2761 81.9049 42.291ZM86.6088 46.6379L87.9494 42.3177H88.8313L86.8983 47.8805C86.8538 47.9993 86.7944 48.127 86.7201 48.2635C86.6489 48.4031 86.5568 48.5352 86.444 48.6599C86.3312 48.7846 86.1946 48.8856 86.0343 48.9628C85.8769 49.043 85.6883 49.083 85.4686 49.083C85.4033 49.083 85.3202 49.0741 85.2192 49.0563C85.1183 49.0385 85.047 49.0237 85.0054 49.0118L85.001 48.3437C85.0247 48.3467 85.0618 48.3496 85.1123 48.3526C85.1658 48.3585 85.2029 48.3615 85.2237 48.3615C85.4107 48.3615 85.5696 48.3363 85.7002 48.2858C85.8309 48.2383 85.9407 48.1566 86.0298 48.0408C86.1219 47.928 86.2005 47.7721 86.2659 47.5732L86.6088 46.6379ZM85.6245 42.3177L86.876 46.0589L87.0898 46.9274L86.4975 47.2302L84.7248 42.3177H85.6245ZM89.4484 44.7806V44.6782C89.4484 44.3308 89.4989 44.0087 89.5999 43.7117C89.7008 43.4118 89.8463 43.152 90.0363 42.9323C90.2264 42.7096 90.4565 42.5374 90.7267 42.4157C90.9969 42.291 91.2997 42.2286 91.6353 42.2286C91.9737 42.2286 92.2781 42.291 92.5483 42.4157C92.8215 42.5374 93.0531 42.7096 93.2431 42.9323C93.4361 43.152 93.5831 43.4118 93.684 43.7117C93.785 44.0087 93.8354 44.3308 93.8354 44.6782V44.7806C93.8354 45.128 93.785 45.4502 93.684 45.7471C93.5831 46.044 93.4361 46.3039 93.2431 46.5265C93.0531 46.7463 92.8229 46.9185 92.5527 47.0432C92.2855 47.1649 91.9827 47.2258 91.6442 47.2258C91.3057 47.2258 91.0013 47.1649 90.7311 47.0432C90.4609 46.9185 90.2293 46.7463 90.0363 46.5265C89.8463 46.3039 89.7008 46.044 89.5999 45.7471C89.4989 45.4502 89.4484 45.128 89.4484 44.7806ZM90.2724 44.6782V44.7806C90.2724 45.0212 90.3006 45.2483 90.357 45.4621C90.4134 45.6729 90.498 45.86 90.6109 46.0233C90.7267 46.1866 90.8707 46.3157 91.0429 46.4107C91.2151 46.5028 91.4155 46.5488 91.6442 46.5488C91.8698 46.5488 92.0673 46.5028 92.2365 46.4107C92.4087 46.3157 92.5513 46.1866 92.6641 46.0233C92.7769 45.86 92.8615 45.6729 92.918 45.4621C92.9773 45.2483 93.007 45.0212 93.007 44.7806V44.6782C93.007 44.4407 92.9773 44.2165 92.918 44.0057C92.8615 43.7919 92.7754 43.6034 92.6596 43.44C92.5468 43.2738 92.4043 43.1431 92.2321 43.0481C92.0628 42.9531 91.8639 42.9056 91.6353 42.9056C91.4096 42.9056 91.2107 42.9531 91.0384 43.0481C90.8692 43.1431 90.7267 43.2738 90.6109 43.44C90.498 43.6034 90.4134 43.7919 90.357 44.0057C90.3006 44.2165 90.2724 44.4407 90.2724 44.6782ZM97.98 46.0233V42.3177H98.8085V47.1367H98.0201L97.98 46.0233ZM98.1359 45.0078L98.4789 44.9989C98.4789 45.3196 98.4447 45.6165 98.3764 45.8896C98.3111 46.1598 98.2042 46.3944 98.0558 46.5934C97.9073 46.7923 97.7128 46.9482 97.4723 47.061C97.2318 47.1709 96.9393 47.2258 96.5949 47.2258C96.3603 47.2258 96.1451 47.1916 95.9491 47.1234C95.7561 47.0551 95.5898 46.9497 95.4503 46.8071C95.3107 46.6646 95.2023 46.479 95.1251 46.2504C95.0509 46.0218 95.0138 45.7471 95.0138 45.4265V42.3177H95.8378V45.4354C95.8378 45.6521 95.8615 45.8317 95.909 45.9743C95.9595 46.1138 96.0263 46.2252 96.1094 46.3083C96.1955 46.3885 96.2906 46.4449 96.3945 46.4776C96.5014 46.5102 96.6112 46.5265 96.7241 46.5265C97.0744 46.5265 97.3521 46.4597 97.5569 46.3261C97.7618 46.1895 97.9088 46.0069 97.9979 45.7783C98.0899 45.5467 98.1359 45.2899 98.1359 45.0078Z" fill="#49454F"/>
<path fill-rule="evenodd" clip-rule="evenodd" d="M64.3462 10.7866L68.1722 0H59.8017L56.2401 10.7866H64.3462ZM62.8083 15.1222H54.8085L51.7087 24.5103L48.6265 15.1222H40.609L46.7603 32.4646H56.657L62.8083 15.1222ZM39.0711 10.7866L35.2451 0H43.6619L47.2031 10.7866H39.0711Z" fill="#004ADA"/>
<path fill-rule="evenodd" clip-rule="evenodd" d="M8.27801 31.1235C10.837 32.5417 13.6425 33.2508 16.6948 33.2508C19.747 33.2508 22.5372 32.5417 25.0653 31.1235C27.5934 29.7053 29.5974 27.7321 31.0772 25.204C32.5571 22.6451 33.297 19.7778 33.297 16.6023C33.297 13.4267 32.5571 10.5749 31.0772 8.04678C29.6282 5.51867 27.6242 3.54552 25.0653 2.12731C22.5372 0.709104 19.747 0 16.6948 0C13.6425 0 10.837 0.709104 8.27801 2.12731C5.74991 3.54552 3.7305 5.51867 2.2198 8.04678C0.739934 10.5749 0 13.4267 0 16.6023C0 19.7778 0.739934 22.6451 2.2198 25.204C3.7305 27.7321 5.74991 29.7053 8.27801 31.1235ZM22.8917 23.4467C21.3502 25.1732 19.2845 26.0364 16.6948 26.0364C14.0742 26.0364 11.9777 25.1886 10.4053 23.4929C8.86379 21.7664 8.09303 19.4695 8.09303 16.6023C8.09303 13.7042 8.86379 11.4073 10.4053 9.71163C11.9777 8.01595 14.0742 7.16811 16.6948 7.16811C19.2845 7.16811 21.3502 8.03137 22.8917 9.75788C24.4641 11.4536 25.2503 13.735 25.2503 16.6023C25.2503 19.4387 24.4641 21.7201 22.8917 23.4467ZM77.6284 32.9271L79.5707 27.1926H91.6872L93.6295 32.9271H102L90.2535 0.462458H81.0968L69.3504 32.9271H77.6284ZM85.6289 9.20293L89.6523 21.0881H81.6518L85.6289 9.20293Z" fill="#49454F"/>
</g>
</svg>
